<svg width="24" height="24" viewBox="0 0 24 24" fill="none" xmlns="http://www.w3.org/2000/svg">
<path fill-rule="evenodd" clip-rule="evenodd" d="M12 0.5C12.61 0.5 13.195 0.742321 13.6263 1.17365C14.0577 1.60499 14.3 2.19 14.3 2.8V9.7H21.2C21.81 9.7 22.395 9.94232 22.8263 10.3737C23.2577 10.805 23.5 11.39 23.5 12C23.5 12.61 23.2577 13.195 22.8263 13.6263C22.395 14.0577 21.81 14.3 21.2 14.3H14.3V21.2C14.3 21.81 14.0577 22.395 13.6263 22.8263C13.195 23.2577 12.61 23.5 12 23.5C11.39 23.5 10.805 23.2577 10.3737 22.8263C9.94232 22.395 9.7 21.81 9.7 21.2V14.3H2.8C2.19 14.3 1.60499 14.0577 1.17365 13.6263C0.742321 13.195 0.5 12.61 0.5 12C0.5 11.39 0.742321 10.805 1.17365 10.3737C1.60499 9.94232 2.19 9.7 2.8 9.7H9.7V2.8C9.7 2.19 9.94232 1.60499 10.3737 1.17365C10.805 0.742321 11.39 0.5 12 0.5Z" fill="white"/>
</svg>
